<svg xmlns="http://www.w3.org/2000/svg" xmlns:xlink="http://www.w3.org/1999/xlink" width="500" zoomAndPan="magnify" viewBox="0 0 375 374.999991" height="500" preserveAspectRatio="xMidYMid meet" version="1.0"><defs><g/></defs><g fill="#222222" fill-opacity="1"><g transform="translate(54.846102, 221.750482)"><g><path d="M 5.28125 0 L 5.28125 -50.078125 C 5.28125 -54.003906 6.242188 -57.554688 8.171875 -60.734375 C 10.109375 -63.921875 12.71875 -66.441406 16 -68.296875 C 19.28125 -70.160156 22.953125 -71.09375 27.015625 -71.09375 L 53.53125 -71.09375 L 53.53125 -56.875 L 29.15625 -56.875 C 27.257812 -56.875 25.648438 -56.195312 24.328125 -54.84375 C 23.003906 -53.488281 22.34375 -51.832031 22.34375 -49.875 L 22.34375 -39.609375 L 50.078125 -39.609375 L 50.078125 -25.5 L 22.34375 -25.5 L 22.34375 0 Z M 5.28125 0 "/></g></g></g><g fill="#222222" fill-opacity="1"><g transform="translate(98.308226, 221.750482)"><g><path d="M 40.625 1.328125 C 34.9375 1.328125 29.789062 0.378906 25.1875 -1.515625 C 20.582031 -3.421875 16.617188 -6.066406 13.296875 -9.453125 C 9.984375 -12.835938 7.429688 -16.765625 5.640625 -21.234375 C 3.847656 -25.703125 2.953125 -30.507812 2.953125 -35.65625 C 2.953125 -40.800781 3.847656 -45.609375 5.640625 -50.078125 C 7.429688 -54.546875 9.96875 -58.453125 13.25 -61.796875 C 16.539062 -65.148438 20.503906 -67.757812 25.140625 -69.625 C 29.773438 -71.488281 34.9375 -72.421875 40.625 -72.421875 C 46.25 -72.421875 51.378906 -71.488281 56.015625 -69.625 C 60.648438 -67.757812 64.609375 -65.148438 67.890625 -61.796875 C 71.179688 -58.453125 73.738281 -54.523438 75.5625 -50.015625 C 77.394531 -45.515625 78.3125 -40.726562 78.3125 -35.65625 C 78.3125 -30.507812 77.394531 -25.703125 75.5625 -21.234375 C 73.738281 -16.765625 71.179688 -12.835938 67.890625 -9.453125 C 64.609375 -6.066406 60.648438 -3.421875 56.015625 -1.515625 C 51.378906 0.378906 46.25 1.328125 40.625 1.328125 Z M 40.625 -13.203125 C 43.601562 -13.203125 46.363281 -13.757812 48.90625 -14.875 C 51.445312 -16 53.628906 -17.578125 55.453125 -19.609375 C 57.285156 -21.640625 58.707031 -24.023438 59.71875 -26.765625 C 60.738281 -29.503906 61.25 -32.46875 61.25 -35.65625 C 61.25 -38.832031 60.738281 -41.773438 59.71875 -44.484375 C 58.707031 -47.191406 57.285156 -49.5625 55.453125 -51.59375 C 53.628906 -53.625 51.445312 -55.195312 48.90625 -56.3125 C 46.363281 -57.4375 43.601562 -58 40.625 -58 C 37.582031 -58 34.804688 -57.4375 32.296875 -56.3125 C 29.796875 -55.195312 27.613281 -53.625 25.75 -51.59375 C 23.882812 -49.5625 22.460938 -47.175781 21.484375 -44.4375 C 20.503906 -41.695312 20.015625 -38.769531 20.015625 -35.65625 C 20.015625 -32.46875 20.503906 -29.503906 21.484375 -26.765625 C 22.460938 -24.023438 23.882812 -21.640625 25.75 -19.609375 C 27.613281 -17.578125 29.796875 -16 32.296875 -14.875 C 34.804688 -13.757812 37.582031 -13.203125 40.625 -13.203125 Z M 40.625 -13.203125 "/></g></g></g><g fill="#222222" fill-opacity="1"><g transform="translate(166.346099, 221.750482)"><g><path d="M 40.734375 0 C 34.910156 0 29.660156 -0.894531 24.984375 -2.6875 C 20.316406 -4.488281 16.359375 -7.015625 13.109375 -10.265625 C 9.859375 -13.515625 7.351562 -17.285156 5.59375 -21.578125 C 3.832031 -25.878906 2.953125 -30.535156 2.953125 -35.546875 C 2.953125 -40.554688 3.832031 -45.210938 5.59375 -49.515625 C 7.351562 -53.816406 9.875 -57.59375 13.15625 -60.84375 C 16.4375 -64.09375 20.394531 -66.613281 25.03125 -68.40625 C 29.675781 -70.195312 34.910156 -71.09375 40.734375 -71.09375 L 51.703125 -71.09375 L 51.703125 -56.875 L 41.140625 -56.875 C 37.953125 -56.875 35.054688 -56.332031 32.453125 -55.25 C 29.847656 -54.164062 27.613281 -52.660156 25.75 -50.734375 C 23.882812 -48.804688 22.460938 -46.554688 21.484375 -43.984375 C 20.503906 -41.410156 20.015625 -38.597656 20.015625 -35.546875 C 20.015625 -32.503906 20.503906 -29.695312 21.484375 -27.125 C 22.460938 -24.550781 23.882812 -22.296875 25.75 -20.359375 C 27.613281 -18.429688 29.847656 -16.925781 32.453125 -15.84375 C 35.054688 -14.757812 37.953125 -14.21875 41.140625 -14.21875 L 51.703125 -14.21875 L 51.703125 0 Z M 40.734375 0 "/></g></g></g><g fill="#222222" fill-opacity="1"><g transform="translate(208.386492, 221.750482)"><g><path d="M 36.15625 1.21875 C 30.269531 1.21875 25.039062 0.0351562 20.46875 -2.328125 C 15.894531 -4.703125 12.320312 -8.085938 9.75 -12.484375 C 7.175781 -16.890625 5.890625 -22.140625 5.890625 -28.234375 L 5.890625 -71.09375 L 22.75 -71.09375 L 22.75 -27.328125 C 22.75 -24.679688 23.289062 -22.289062 24.375 -20.15625 C 25.457031 -18.03125 27.015625 -16.335938 29.046875 -15.078125 C 31.078125 -13.828125 33.445312 -13.203125 36.15625 -13.203125 C 38.9375 -13.203125 41.320312 -13.828125 43.3125 -15.078125 C 45.3125 -16.335938 46.851562 -18.03125 47.9375 -20.15625 C 49.019531 -22.289062 49.5625 -24.679688 49.5625 -27.328125 L 49.5625 -71.09375 L 66.421875 -71.09375 L 66.421875 -28.234375 C 66.421875 -22.140625 65.117188 -16.890625 62.515625 -12.484375 C 59.910156 -8.085938 56.335938 -4.703125 51.796875 -2.328125 C 47.265625 0.0351562 42.050781 1.21875 36.15625 1.21875 Z M 36.15625 1.21875 "/></g></g></g><g fill="#222222" fill-opacity="1"><g transform="translate(267.487719, 221.750482)"><g><path d="M 6.609375 0 L 6.609375 -14.21875 L 36.96875 -14.21875 C 38.320312 -14.21875 39.539062 -14.554688 40.625 -15.234375 C 41.707031 -15.910156 42.570312 -16.789062 43.21875 -17.875 C 43.863281 -18.957031 44.1875 -20.144531 44.1875 -21.4375 C 44.1875 -22.789062 43.863281 -24.007812 43.21875 -25.09375 C 42.570312 -26.175781 41.707031 -27.054688 40.625 -27.734375 C 39.539062 -28.410156 38.320312 -28.75 36.96875 -28.75 L 26 -28.75 C 21.875 -28.75 18.117188 -29.5625 14.734375 -31.1875 C 11.347656 -32.8125 8.65625 -35.195312 6.65625 -38.34375 C 4.65625 -41.488281 3.65625 -45.265625 3.65625 -49.671875 C 3.65625 -54.003906 4.601562 -57.757812 6.5 -60.9375 C 8.394531 -64.125 10.96875 -66.613281 14.21875 -68.40625 C 17.46875 -70.195312 21.054688 -71.09375 24.984375 -71.09375 L 56.375 -71.09375 L 56.375 -56.875 L 26.921875 -56.875 C 25.703125 -56.875 24.582031 -56.566406 23.5625 -55.953125 C 22.550781 -55.347656 21.773438 -54.535156 21.234375 -53.515625 C 20.691406 -52.503906 20.421875 -51.390625 20.421875 -50.171875 C 20.421875 -48.953125 20.691406 -47.851562 21.234375 -46.875 C 21.773438 -45.894531 22.550781 -45.097656 23.5625 -44.484375 C 24.582031 -43.878906 25.703125 -43.578125 26.921875 -43.578125 L 38.390625 -43.578125 C 42.929688 -43.578125 46.875 -42.710938 50.21875 -40.984375 C 53.570312 -39.253906 56.179688 -36.847656 58.046875 -33.765625 C 59.910156 -30.691406 60.84375 -27.085938 60.84375 -22.953125 C 60.84375 -18.078125 59.875 -13.929688 57.9375 -10.515625 C 56.007812 -7.097656 53.421875 -4.488281 50.171875 -2.6875 C 46.921875 -0.894531 43.332031 0 39.40625 0 Z M 6.609375 0 "/></g></g></g></svg>